<svg width="48" height="25" viewBox="0 0 48 25" fill="none" xmlns="http://www.w3.org/2000/svg">
<path fill-rule="evenodd" clip-rule="evenodd" d="M29.7969 5.06897C30.4631 4.80296 31.1707 4.71091 31.7834 4.85445C32.6897 5.06553 33.3047 5.72534 33.5159 6.71043C33.7915 7.99687 33.185 9.47155 31.8079 10.8638C30.723 11.9605 29.2673 12.8729 27.7303 13.4362C27.0937 14.3874 26.2782 15.1538 25.2438 15.6197C25.3944 16.2032 25.9236 18.2049 27.203 19.2393H20.9547C22.2337 18.2047 22.7631 16.2032 22.9139 15.6197C21.8795 15.1538 21.0643 14.3876 20.4274 13.4365C18.8903 12.873 17.4347 11.9606 16.3498 10.864C14.9729 9.47179 14.3662 7.99695 14.6418 6.71059C14.8527 5.72535 15.4681 5.06554 16.3744 4.85445C16.9872 4.71091 17.6947 4.80296 18.3609 5.06897C18.355 4.68754 18.3569 3.70167 18.3671 3.34454H29.7907C29.8009 3.70181 29.8026 4.68766 29.7969 5.06897ZM15.9364 7.02213C15.7732 7.78383 16.2705 8.83957 17.2664 9.84699C17.8728 10.4603 18.6166 11.0051 19.4262 11.4511C18.8636 9.95698 18.5628 8.2731 18.4347 6.66067C17.8704 6.29105 17.1853 6.10445 16.6602 6.22723C16.2624 6.32022 16.0323 6.57248 15.9364 7.02213ZM28.7314 11.4513C29.5412 11.0051 30.2849 10.46 30.8913 9.84699C31.8871 8.83989 32.3844 7.78415 32.2212 7.02233C32.1255 6.5727 31.8953 6.32042 31.4974 6.22743C30.9722 6.10482 30.2873 6.29142 29.723 6.66087C29.595 8.27326 29.2944 9.9573 28.7314 11.4513ZM28.286 20.0188H19.8707V21.7533H28.286V20.0188Z" fill="black"/>
<path fill-rule="evenodd" clip-rule="evenodd" d="M29.7969 5.06897C30.4631 4.80296 31.1707 4.71091 31.7834 4.85445C32.6897 5.06553 33.3047 5.72534 33.5159 6.71043C33.7915 7.99687 33.185 9.47155 31.8079 10.8638C30.723 11.9605 29.2673 12.8729 27.7303 13.4362C27.0937 14.3874 26.2782 15.1538 25.2438 15.6197C25.3944 16.2032 25.9236 18.2049 27.203 19.2393H20.9547C22.2337 18.2047 22.7631 16.2032 22.9139 15.6197C21.8795 15.1538 21.0643 14.3876 20.4274 13.4365C18.8903 12.873 17.4347 11.9606 16.3498 10.864C14.9729 9.47179 14.3662 7.99695 14.6418 6.71059C14.8527 5.72535 15.4681 5.06554 16.3744 4.85445C16.9872 4.71091 17.6947 4.80296 18.3609 5.06897C18.355 4.68754 18.3569 3.70167 18.3671 3.34454H29.7907C29.8009 3.70181 29.8026 4.68766 29.7969 5.06897ZM15.9364 7.02213C15.7732 7.78383 16.2705 8.83957 17.2664 9.84699C17.8728 10.4603 18.6166 11.0051 19.4262 11.4511C18.8636 9.95698 18.5628 8.2731 18.4347 6.66067C17.8704 6.29105 17.1853 6.10445 16.6602 6.22723C16.2624 6.32022 16.0323 6.57248 15.9364 7.02213ZM28.7314 11.4513C29.5412 11.0051 30.2849 10.46 30.8913 9.84699C31.8871 8.83989 32.3844 7.78415 32.2212 7.02233C32.1255 6.5727 31.8953 6.32042 31.4974 6.22743C30.9722 6.10482 30.2873 6.29142 29.723 6.66087C29.595 8.27326 29.2944 9.9573 28.7314 11.4513ZM28.286 20.0188H19.8707V21.7533H28.286V20.0188Z" fill="#3300FF"/>
<path d="M12.847 18.4597C12.847 18.4597 13.9723 17.5379 14.0265 16.3287C14.0807 15.1195 13.0434 14.0809 13.0434 14.0809C13.0434 14.0809 11.9181 15.0027 11.8639 16.2119C11.8097 17.4211 12.847 18.4597 12.847 18.4597Z" fill="#3300FF"/>
<path d="M12.847 18.4597C12.847 18.4597 13.9723 17.5379 14.0265 16.3287C14.0807 15.1195 13.0434 14.0809 13.0434 14.0809C13.0434 14.0809 11.9181 15.0027 11.8639 16.2119C11.8097 17.4211 12.847 18.4597 12.847 18.4597Z" fill="#3300FF"/>
<path d="M12.2929 18.8933C12.2929 18.8933 11.0524 19.6494 9.9077 19.2906C8.76301 18.9317 8.14763 17.5938 8.14763 17.5938C8.14763 17.5938 9.38816 16.8376 10.5329 17.1965C11.6775 17.5554 12.2929 18.8933 12.2929 18.8933Z" fill="#3300FF"/>
<path d="M12.2929 18.8933C12.2929 18.8933 11.0524 19.6494 9.9077 19.2906C8.76301 18.9317 8.14763 17.5938 8.14763 17.5938C8.14763 17.5938 9.38816 16.8376 10.5329 17.1965C11.6775 17.5554 12.2929 18.8933 12.2929 18.8933Z" fill="#3300FF"/>
<path d="M10.4405 14.9037C10.4405 14.9037 9.92904 13.5223 10.482 12.4531C11.0349 11.384 12.4428 11.0319 12.4428 11.0319C12.4428 11.0319 12.9543 12.4133 12.4014 13.4825C11.8485 14.5516 10.4405 14.9037 10.4405 14.9037Z" fill="#3300FF"/>
<path d="M10.4405 14.9037C10.4405 14.9037 9.92904 13.5223 10.482 12.4531C11.0349 11.384 12.4428 11.0319 12.4428 11.0319C12.4428 11.0319 12.9543 12.4133 12.4014 13.4825C11.8485 14.5516 10.4405 14.9037 10.4405 14.9037Z" fill="#3300FF"/>
<path d="M8.13424 7.21415C8.13424 7.21415 9.6346 5.98503 9.70689 4.37277C9.81079 2.05573 8.42876 0.645616 8.42876 0.645616C8.42876 0.645616 6.42948 1.8445 6.32432 4.18985C6.21916 6.53519 8.13424 7.21415 8.13424 7.21415Z" fill="#3300FF"/>
<path d="M8.13424 7.21415C8.13424 7.21415 9.6346 5.98503 9.70689 4.37277C9.81079 2.05573 8.42876 0.645616 8.42876 0.645616C8.42876 0.645616 6.42948 1.8445 6.32432 4.18985C6.21916 6.53519 8.13424 7.21415 8.13424 7.21415Z" fill="#3300FF"/>
<path d="M8.43361 11.0652C8.43361 11.0652 6.25202 11.6198 4.70811 10.567C3.16419 9.51425 2.84262 7.25271 2.84262 7.25271C2.84262 7.25271 5.02422 6.69805 6.56813 7.75084C8.11204 8.80362 8.43361 11.0652 8.43361 11.0652Z" fill="#3300FF"/>
<path d="M8.43361 11.0652C8.43361 11.0652 6.25202 11.6198 4.70811 10.567C3.16419 9.51425 2.84262 7.25271 2.84262 7.25271C2.84262 7.25271 5.02422 6.69805 6.56813 7.75084C8.11204 8.80362 8.43361 11.0652 8.43361 11.0652Z" fill="#3300FF"/>
<path d="M9.04936 10.8584C9.04936 10.8584 8.36813 9.01625 9.10596 7.59101C9.84379 6.16578 11.7213 5.69718 11.7213 5.69718C11.7213 5.69718 12.4025 7.53935 11.6647 8.96459C10.9269 10.3898 9.04936 10.8584 9.04936 10.8584Z" fill="#3300FF"/>
<path d="M9.04936 10.8584C9.04936 10.8584 8.36813 9.01625 9.10596 7.59101C9.84379 6.16578 11.7213 5.69718 11.7213 5.69718C11.7213 5.69718 12.4025 7.53935 11.6647 8.96459C10.9269 10.3898 9.04936 10.8584 9.04936 10.8584Z" fill="#3300FF"/>
<path d="M10.0341 15.1332C10.0341 15.1332 8.28772 15.9684 6.815 15.3385C5.34227 14.7086 4.70091 12.8521 4.70091 12.8521C4.70091 12.8521 6.44729 12.0169 7.92002 12.6468C9.39274 13.2767 10.0341 15.1332 10.0341 15.1332Z" fill="#3300FF"/>
<path d="M10.0341 15.1332C10.0341 15.1332 8.28772 15.9684 6.815 15.3385C5.34227 14.7086 4.70091 12.8521 4.70091 12.8521C4.70091 12.8521 6.44729 12.0169 7.92002 12.6468C9.39274 13.2767 10.0341 15.1332 10.0341 15.1332Z" fill="#3300FF"/>
<path fill-rule="evenodd" clip-rule="evenodd" d="M7.8895 3.47304C8.08775 3.45423 8.43916 7.40685 8.4593 7.60779C8.80742 11.08 10.5597 16.8911 15.3821 21.1194C15.5288 21.248 15.5555 21.4699 15.4392 21.6254C15.3154 21.7908 15.0786 21.8169 14.9223 21.6801C9.91108 17.2938 8.10155 11.2684 7.74138 7.6759C7.72123 7.47496 7.69125 3.49185 7.8895 3.47304Z" fill="#3300FF"/>
<path fill-rule="evenodd" clip-rule="evenodd" d="M7.8895 3.47304C8.08775 3.45423 8.43916 7.40685 8.4593 7.60779C8.80742 11.08 10.5597 16.8911 15.3821 21.1194C15.5288 21.248 15.5555 21.4699 15.4392 21.6254C15.3154 21.7908 15.0786 21.8169 14.9223 21.6801C9.91108 17.2938 8.10155 11.2684 7.74138 7.6759C7.72123 7.47496 7.69125 3.49185 7.8895 3.47304Z" fill="#3300FF"/>
<path d="M35.1537 18.4597C35.1537 18.4597 34.0284 17.5379 33.9742 16.3287C33.92 15.1195 34.9574 14.0809 34.9574 14.0809C34.9574 14.0809 36.0826 15.0027 36.1368 16.2119C36.1911 17.4211 35.1537 18.4597 35.1537 18.4597Z" fill="#3300FF"/>
<path d="M35.1537 18.4597C35.1537 18.4597 34.0284 17.5379 33.9742 16.3287C33.92 15.1195 34.9574 14.0809 34.9574 14.0809C34.9574 14.0809 36.0826 15.0027 36.1368 16.2119C36.1911 17.4211 35.1537 18.4597 35.1537 18.4597Z" fill="#3300FF"/>
<path d="M35.7078 18.8933C35.7078 18.8933 36.9483 19.6494 38.093 19.2906C39.2377 18.9317 39.8531 17.5938 39.8531 17.5938C39.8531 17.5938 38.6126 16.8376 37.4679 17.1965C36.3232 17.5554 35.7078 18.8933 35.7078 18.8933Z" fill="#3300FF"/>
<path d="M35.7078 18.8933C35.7078 18.8933 36.9483 19.6494 38.093 19.2906C39.2377 18.9317 39.8531 17.5938 39.8531 17.5938C39.8531 17.5938 38.6126 16.8376 37.4679 17.1965C36.3232 17.5554 35.7078 18.8933 35.7078 18.8933Z" fill="#3300FF"/>
<path d="M37.5602 14.9037C37.5602 14.9037 38.0717 13.5223 37.5188 12.4531C36.9659 11.384 35.5579 11.0319 35.5579 11.0319C35.5579 11.0319 35.0464 12.4133 35.5993 13.4825C36.1522 14.5516 37.5602 14.9037 37.5602 14.9037Z" fill="#3300FF"/>
<path d="M37.5602 14.9037C37.5602 14.9037 38.0717 13.5223 37.5188 12.4531C36.9659 11.384 35.5579 11.0319 35.5579 11.0319C35.5579 11.0319 35.0464 12.4133 35.5993 13.4825C36.1522 14.5516 37.5602 14.9037 37.5602 14.9037Z" fill="#3300FF"/>
<path d="M39.8665 7.21415C39.8665 7.21415 38.3661 5.98503 38.2938 4.37277C38.1899 2.05573 39.572 0.645617 39.572 0.645617C39.572 0.645617 41.5713 1.8445 41.6764 4.18985C41.7816 6.53519 39.8665 7.21415 39.8665 7.21415Z" fill="#3300FF"/>
<path d="M39.8665 7.21415C39.8665 7.21415 38.3661 5.98503 38.2938 4.37277C38.1899 2.05573 39.572 0.645617 39.572 0.645617C39.572 0.645617 41.5713 1.8445 41.6764 4.18985C41.7816 6.53519 39.8665 7.21415 39.8665 7.21415Z" fill="#3300FF"/>
<path d="M39.5671 11.0652C39.5671 11.0652 41.7487 11.6198 43.2926 10.567C44.8365 9.51425 45.1581 7.25271 45.1581 7.25271C45.1581 7.25271 42.9765 6.69806 41.4326 7.75084C39.8887 8.80362 39.5671 11.0652 39.5671 11.0652Z" fill="#3300FF"/>
<path d="M39.5671 11.0652C39.5671 11.0652 41.7487 11.6198 43.2926 10.567C44.8365 9.51425 45.1581 7.25271 45.1581 7.25271C45.1581 7.25271 42.9765 6.69806 41.4326 7.75084C39.8887 8.80362 39.5671 11.0652 39.5671 11.0652Z" fill="#3300FF"/>
<path d="M38.9514 10.8584C38.9514 10.8584 39.6326 9.01625 38.8948 7.59101C38.1569 6.16578 36.2795 5.69718 36.2795 5.69718C36.2795 5.69718 35.5982 7.53935 36.3361 8.96459C37.0739 10.3898 38.9514 10.8584 38.9514 10.8584Z" fill="#3300FF"/>
<path d="M38.9514 10.8584C38.9514 10.8584 39.6326 9.01625 38.8948 7.59101C38.1569 6.16578 36.2795 5.69718 36.2795 5.69718C36.2795 5.69718 35.5982 7.53935 36.3361 8.96459C37.0739 10.3898 38.9514 10.8584 38.9514 10.8584Z" fill="#3300FF"/>
<path d="M37.9666 15.1332C37.9666 15.1332 39.713 15.9684 41.1857 15.3385C42.6585 14.7086 43.2998 12.8521 43.2998 12.8521C43.2998 12.8521 41.5534 12.0169 40.0807 12.6468C38.608 13.2767 37.9666 15.1332 37.9666 15.1332Z" fill="#3300FF"/>
<path d="M37.9666 15.1332C37.9666 15.1332 39.713 15.9684 41.1857 15.3385C42.6585 14.7086 43.2998 12.8521 43.2998 12.8521C43.2998 12.8521 41.5534 12.0169 40.0807 12.6468C38.608 13.2767 37.9666 15.1332 37.9666 15.1332Z" fill="#3300FF"/>
<path fill-rule="evenodd" clip-rule="evenodd" d="M40.1112 3.47304C39.913 3.45423 39.5616 7.40685 39.5414 7.60779C39.1933 11.08 37.4411 16.8912 32.6187 21.1194C32.472 21.248 32.4452 21.4699 32.5615 21.6254C32.6853 21.7908 32.9221 21.8169 33.0784 21.6801C38.0897 17.2938 39.8992 11.2684 40.2594 7.6759C40.2795 7.47496 40.3095 3.49185 40.1112 3.47304Z" fill="#3300FF"/>
<path fill-rule="evenodd" clip-rule="evenodd" d="M40.1112 3.47304C39.913 3.45423 39.5616 7.40685 39.5414 7.60779C39.1933 11.08 37.4411 16.8912 32.6187 21.1194C32.472 21.248 32.4452 21.4699 32.5615 21.6254C32.6853 21.7908 32.9221 21.8169 33.0784 21.6801C38.0897 17.2938 39.8992 11.2684 40.2594 7.6759C40.2795 7.47496 40.3095 3.49185 40.1112 3.47304Z" fill="#3300FF"/>
</svg>
